<svg xmlns="http://www.w3.org/2000/svg" width="230" height="38.158" viewBox="0 0 230 38.158"><g transform="translate(-20 -9.758)"><g transform="translate(105.409 20.848)"><path d="M-20.682,0H-32.456c-4.047,0-8.672,1.314-8.672,7.884v4.731c0,6.517,4.625,7.831,8.672,7.831h11.773c4.047,0,8.672-1.314,8.672-7.831V7.884C-12.01,1.314-16.688,0-20.682,0m.736,11.563c0,2.628-1,3.259-6.1,3.259h-1.892c-3.627,0-5.361-.841-5.361-3.679V9.25c0-2.838,1.787-3.679,5.361-3.679h1.892c5.1,0,6.1.631,6.1,3.259Z" transform="translate(41.128 0)"/></g><g transform="translate(135.263 12.806)"><path d="M-28.977-16.642c0-5.046-1.209-8.462-11.2-8.462h-2.365c-3.259,0-6.57.841-7.1,3.942h-.105V-33.093h-7.884V-4.921h7.411V-8.548h.1c.841,2.47,2.839,3.942,7.621,3.942h2.313c9.986,0,11.2-3.364,11.2-8.462ZM-36.651-13.7c0,2.207-.368,3.469-4.152,3.469h-4.625c-3.1,0-4.783-.631-4.783-3.626V-15.8c0-3,1.629-3.627,4.783-3.627H-40.8c3.785,0,4.152,1.262,4.152,3.469Z" transform="translate(57.622 33.093)"/></g><g transform="translate(161.595 21.164)"><path d="M-2.978-19.885c0,1.261-.578,1.945-2.1,1.945-.21,0-.473-.053-.841-.053V-13c.841.053,2,.21,3.1.21,4.625,0,7.674-1.367,7.674-5.624V-39.542H-3.03v19.657Z" transform="translate(5.921 39.542)"/></g><g transform="translate(173.053 16.485)"><path d="M-70.767-15.9v1.314c0,1.84-.683,2.365-3.259,2.365-1.892,0-3.048-.315-3.048-1.787v-7.569h6.36v-5.361h-6.36v-4.678h-7.884v4.678H-88.9v1.209A12.641,12.641,0,0,0-95.733-27.3h-8.883c-4.73,0-8.2,1.1-9.3,5.624-.946-4.468-4.52-5.624-11.563-5.624H-131c-5.782,0-9.724,1.63-9.724,9.146v1.892c0,8.462,5.519,9.408,10.722,9.408h5.939c5.361,0,9.829-.946,10.354-5.256,1.577,4.625,5.94,5.256,10.144,5.256h8.041c4.52,0,9.2-1.524,9.2-6.832v-1.734H-94v.473c0,1.84-2,2.313-4.257,2.313H-102.3c-2.47,0-4.2-.788-4.2-3.364v-2.628c0-2.155,1.577-3.048,4.835-3.048h3.048c3.469,0,4.573.736,4.573,2.785h7.674V-20.68a5.09,5.09,0,0,0-.053-.894h1.419v7.832c0,5.466,4.2,6.938,9.04,6.938h3.1c6.307,0,8.935-2.891,8.935-6.675V-15.9Zm-56.291-6.728c4.625,0,5.729.421,5.729,2.785H-132.84c.053-2.313.631-2.785,5.782-2.785m5.992,8.883c0,1.156-.21,2.26-4.467,2.26h-2.418c-3.311,0-4.835-.578-4.835-2.68v-1.209h18.553c.053.578.1,1.156.158,1.63Z" transform="translate(140.724 31.613)"/></g><g transform="translate(20 17.589)"><path d="M-17.6-3.3h-2.365c-3.259,0-6.57.841-7.1,3.942h-.053v-7.2H-35V16.834h7.411V13.207h.1c.841,2.47,2.838,3.994,7.621,3.994h2.313c9.986,0,11.2-3.364,11.2-8.462V5.166C-6.4.068-7.613-3.3-17.6-3.3m3.574,11.405c0,2.208-.368,3.469-4.152,3.469H-22.8c-3.1,0-4.783-.683-4.783-3.679V5.954c0-3,1.629-3.626,4.783-3.626h4.625c3.784,0,4.152,1.261,4.152,3.469Z" transform="translate(34.996 6.555)"/></g><path d="M60.053-53.815h7.884V-34H60.053Z" transform="translate(-10.2 74.979)"/><g transform="translate(59.157 20.848)"><path d="M-35.676,0h-2.417c-4.468,0-6.15,1.051-7.464,4.625C-47.029,1.524-49.6,0-53.336,0h-3c-3.889,0-6.57,1.367-6.99,4.2h-.1V.315h-7.516V20.13h7.884V9.671c0-3.048,1.577-3.837,4.993-3.837,4.783,0,5.729.631,5.729,3.048V20.13h7.884V9.2c0-2.628,1.577-3.364,5.361-3.364,4.625,0,5.361.946,5.361,3.679v10.67h7.884V8.987C-25.9,3.311-28.528,0-35.676,0" transform="translate(70.943 0)"/></g><g transform="translate(243.062 9.758)"><path d="M-7.018-3.35A3.368,3.368,0,0,1-10.487-.038,3.335,3.335,0,0,1-13.956-3.35a3.368,3.368,0,0,1,3.469-3.311A3.368,3.368,0,0,1-7.018-3.35m-6.412,0A2.851,2.851,0,0,0-10.487-.512,2.851,2.851,0,0,0-7.544-3.35a2.851,2.851,0,0,0-2.943-2.838A2.851,2.851,0,0,0-13.431-3.35M-11.276-1.4h-.473V-5.242h1.525c.893,0,1.314.368,1.314,1.051a1.011,1.011,0,0,1-1,1.051L-8.7-1.458h-.578l-1.156-1.682h-.841Zm.683-2.1c.631,0,1.209,0,1.209-.684,0-.525-.473-.63-.946-.63h-.893v1.314Z" transform="translate(13.956 6.661)"/></g><g transform="translate(49.854 10.42)"><path d="M-7.975-3.988A3.942,3.942,0,0,0-11.917-7.93a3.942,3.942,0,0,0-3.942,3.942A3.942,3.942,0,0,0-11.917-.046,3.942,3.942,0,0,0-7.975-3.988" transform="translate(15.859 7.93)"/></g></g></svg>