<svg width="37" height="36" viewBox="0 0 37 36" fill="none" xmlns="http://www.w3.org/2000/svg">
<rect x="0.5" width="36" height="36" rx="18" fill="#EFF5F3"/>
<path fill-rule="evenodd" clip-rule="evenodd" d="M16.5 13.874C18.2252 13.4299 19.5 11.8638 19.5 10C19.5 7.79086 17.7091 6 15.5 6C13.2909 6 11.5 7.79086 11.5 10C11.5 11.8638 12.7748 13.4299 14.5 13.874V28H15.5H16.5H19.6707C20.0825 29.1652 21.1938 30 22.5 30C24.1569 30 25.5 28.6569 25.5 27C25.5 25.3431 24.1569 24 22.5 24C21.1938 24 20.0825 24.8348 19.6707 26H16.5V20H19.6707C20.0825 21.1652 21.1938 22 22.5 22C24.1569 22 25.5 20.6569 25.5 19C25.5 17.3431 24.1569 16 22.5 16C21.1938 16 20.0825 16.8348 19.6707 18H16.5V13.874ZM17.5 10C17.5 11.1046 16.6046 12 15.5 12C14.3954 12 13.5 11.1046 13.5 10C13.5 8.89543 14.3954 8 15.5 8C16.6046 8 17.5 8.89543 17.5 10Z" fill="#0C482F"/>
</svg>
