<svg width="10" height="17" viewBox="0 0 10 17" fill="none" xmlns="http://www.w3.org/2000/svg">
<path d="M3.02805 9.84406H0.550781V7.00006H3.02805V4.75006C2.99653 4.2452 3.0716 3.73939 3.24866 3.26373C3.42571 2.78808 3.70102 2.35263 4.05766 1.98407C4.42208 1.65008 4.85203 1.3908 5.32187 1.22174C5.79172 1.05268 6.29183 0.977295 6.79233 1.00006C7.54536 0.990177 8.29815 1.03195 9.04512 1.12506V3.65607H7.5007C7.28618 3.63114 7.06866 3.65174 6.86316 3.71649C6.65765 3.78124 6.46906 3.88859 6.31045 4.03107C6.11342 4.3277 6.02292 4.67928 6.05305 5.03107V7.00006H8.78772L8.40161 9.84406H6.05204V17.0001H3.02701L3.02805 9.84406Z" fill="black"/>
</svg>
