<svg xmlns="http://www.w3.org/2000/svg" width="71" height="57.355" viewBox="0 0 71 57.355">
  <g id="Furniture" transform="translate(-14 -22.878)">
    <g id="Group_5" data-name="Group 5" transform="translate(5.345 3.381)">
      <g id="Group_3" data-name="Group 3" transform="translate(9.876 39.338)">
        <path id="Path_583" data-name="Path 583" d="M187.9,50.1l-5.3,3.518-1.958,6.626-14.892,8.684v5.521L187.9,62.084Z" transform="translate(-120 -42.293)" fill="#b0ccc2"/>
        <path id="Path_6223" data-name="Path 6223" d="M.8,1.373l44.98,25.21v5.723L.8,6.7Z" fill="#d5e5e0"/>
        <path id="Path_6224" data-name="Path 6224" d="M2.787-.842l45.04,25.907-2.195,6.989L.978,6.643Z" transform="translate(15 -14)" fill="#d5e5e0"/>
      </g>
      <g id="Group_2" data-name="Group 2" transform="translate(9.427 20.274)">
        <g id="Group_1" data-name="Group 1" transform="translate(0 0)">
          <path id="Union_1" data-name="Union 1" d="M23,39,0,26V19.5l15.44-8.766L17.25,3.307,23,0,46,13,69,26V39L46,52Z" transform="translate(0.228 0.374)" fill="none" stroke="#0c482f" stroke-width="2"/>
        </g>
        <path id="Path_582" data-name="Path 582" d="M168.791,35.183l-6.451,3.4-.984,7.222-15.72,8.922v5.948" transform="translate(-122.976 -22.28)" fill="none" stroke="#0c482f" stroke-width="2"/>
      </g>
      <path id="Path_585" data-name="Path 585" d="M119.733,50,118,56.671" transform="translate(-107.258 -1.992)" fill="none" stroke="#0c482f" stroke-width="2"/>
      <path id="Path_586" data-name="Path 586" d="M119.733,50,118,57.233" transform="translate(-68.269 19.386)" fill="none" stroke="#0c482f" stroke-width="2"/>
      <path id="Path_587" data-name="Path 587" d="M120,50l1.733,4.736" transform="translate(-44.277 11.273)" fill="none" stroke="#0c482f" stroke-width="2"/>
    </g>
  </g>
</svg>
