<svg width="15" height="15" viewBox="0 0 15 15" fill="none" xmlns="http://www.w3.org/2000/svg">
<path d="M0.973375 2.88583C0.697351 2.61061 0.527623 2.25081 0.492941 1.86755C0.458259 1.48428 0.560734 1.10121 0.783076 0.783209C1.00542 0.465203 1.33391 0.231858 1.71274 0.122901C2.09157 0.0139428 2.49743 0.0360448 2.86145 0.185402C3.22548 0.334759 3.52522 0.602143 3.70984 0.94228C3.89446 1.28242 3.95255 1.67438 3.87428 2.05149C3.79602 2.42861 3.58619 2.76774 3.28043 3.01132C2.97466 3.2549 2.59182 3.3879 2.19682 3.3878C1.96849 3.39012 1.74207 3.34681 1.53163 3.26047C1.32119 3.17412 1.13119 3.04658 0.973375 2.88583ZM0.682736 14.0547V4.67385H3.67795V14.0547H0.682736ZM11.8916 14.0547V9.47469C11.9186 8.92424 11.8531 8.37319 11.6978 7.84328C11.5932 7.57436 11.4012 7.34609 11.1512 7.19315C10.9011 7.0402 10.6067 6.97095 10.3125 6.99596C10.0221 6.97173 9.7307 7.02999 9.47354 7.16361C9.21637 7.29723 9.00447 7.50049 8.86338 7.74892C8.61846 8.26921 8.50804 8.84002 8.54179 9.41145V14.0547H5.57854V4.67385H8.44492V5.96089H8.47687C8.70894 5.52472 9.06731 5.1645 9.50757 4.92484C10.2648 4.4895 11.1558 4.32952 12.0226 4.47324C12.8894 4.61695 13.6759 5.05506 14.2426 5.7099C14.7396 6.70364 14.9616 7.80653 14.8868 8.90948V14.0547H11.8916Z" fill="black"/>
</svg>
