<svg width="18" height="17" viewBox="0 0 18 17" fill="none" xmlns="http://www.w3.org/2000/svg">
<path d="M15.9164 12.2417C15.1918 13.4504 14.1562 14.4557 12.9108 15.159C11.9308 15.7116 10.8434 16.0611 9.71729 16.1854C8.59117 16.3097 7.45077 16.206 6.36797 15.881C6.80181 15.2321 7.13753 14.5263 7.3649 13.7849L7.89632 11.8837C8.06042 12.1704 8.31695 12.3969 8.6265 12.5284C8.98785 12.7018 9.38617 12.7901 9.78924 12.7863C10.5678 12.7916 11.3285 12.5604 11.9649 12.1251C12.6289 11.6714 13.1561 11.0539 13.4922 10.3364C13.8621 9.56416 14.0495 8.72146 14.0406 7.86991C14.0533 7.02507 13.8233 6.1935 13.3763 5.46843C12.9365 4.7621 12.3043 4.18738 11.5493 3.80763C10.7498 3.4046 9.85998 3.19977 8.95916 3.21139C7.91981 3.1906 6.89175 3.42363 5.96941 3.88911C5.2128 4.30173 4.58771 4.90849 4.16258 5.64284C3.73365 6.37441 3.51042 7.20259 3.5153 8.04432C3.5202 8.69175 3.68533 9.32849 3.99677 9.90105C4.24194 10.4366 4.66988 10.8739 5.20842 11.139C5.36359 11.203 5.45181 11.171 5.47413 11.042L5.70688 10.1394C5.71841 10.0995 5.71831 10.0573 5.70669 10.0174C5.69506 9.97754 5.67233 9.94163 5.64097 9.91352C5.4459 9.66648 5.29929 9.3867 5.20842 9.08822C5.09875 8.76037 5.0428 8.41784 5.04261 8.07315C5.04033 7.48092 5.19477 6.89806 5.49112 6.38037C5.791 5.85275 6.23152 5.41308 6.76654 5.10741C7.36744 4.75662 8.05827 4.57782 8.75935 4.59163C9.21698 4.57414 9.67349 4.6465 10.1016 4.80444C10.5297 4.96238 10.9205 5.20263 11.2506 5.51074C11.5685 5.81466 11.8181 6.17911 11.9839 6.58121C12.1496 6.98332 12.2278 7.41439 12.2136 7.84725C12.2554 8.78225 11.9953 9.70659 11.4696 10.4911C11.2774 10.8004 11.0075 11.0572 10.6852 11.2376C10.3628 11.418 9.99863 11.5161 9.62661 11.5227C9.43697 11.5306 9.24805 11.4954 9.07495 11.4198C8.90184 11.3442 8.74936 11.2304 8.62968 11.0874C8.51033 10.9484 8.4269 10.7838 8.38642 10.6072C8.34593 10.4307 8.34955 10.2473 8.39692 10.0723C8.47258 9.72225 8.5727 9.37759 8.69662 9.04074C8.88644 8.50336 9.00885 7.94575 9.0612 7.37995C9.07169 7.09939 8.97732 6.82461 8.79549 6.60627C8.70089 6.50179 8.583 6.41964 8.45077 6.36601C8.31853 6.31239 8.17542 6.28865 8.03235 6.29675C7.82259 6.29757 7.61619 6.34796 7.43101 6.44358C7.24582 6.5392 7.08743 6.67728 6.96952 6.84565C6.66884 7.24706 6.51645 7.73505 6.53696 8.23093C6.52417 8.64047 6.6036 9.04789 6.76972 9.42456L5.83974 13.3887C5.70062 14.1449 5.68948 14.9182 5.80678 15.6779C4.25978 15.1174 2.93076 14.1036 2.00395 12.7771C1.12244 11.5291 0.623358 10.0641 0.564481 8.55204C0.505603 7.03998 0.889357 5.54268 1.6713 4.23363C2.39616 3.0251 3.43183 2.0199 4.677 1.31637C5.92718 0.608993 7.34838 0.236328 8.79549 0.236328C10.2426 0.236328 11.6638 0.608993 12.914 1.31637C14.1591 2.01994 15.1948 3.02513 15.9197 4.23363C16.6485 5.44703 17.0325 6.8264 17.0325 8.23093C17.0325 9.63546 16.6485 11.0148 15.9197 12.2282L15.9164 12.2417Z" fill="black"/>
</svg>
