<svg width="17" height="14" viewBox="0 0 17 14" fill="none" xmlns="http://www.w3.org/2000/svg">
<path d="M15.164 4.15693C15.1597 5.67246 14.7733 7.1639 14.0386 8.50093C13.25 10.0257 12.0348 11.3037 10.5323 12.1881C9.02983 13.0725 7.30097 13.5275 5.54429 13.5009C3.70631 13.5154 1.90455 13.0046 0.363281 12.0319C0.599407 12.0526 0.867775 12.0632 1.16842 12.0639C2.69741 12.0762 4.18466 11.5797 5.38266 10.6569C4.66761 10.6683 3.96993 10.4425 3.40475 10.0169C2.85116 9.61115 2.44072 9.04867 2.22996 8.40693C2.43315 8.42753 2.63726 8.43819 2.84155 8.43891C3.14441 8.43827 3.44637 8.40677 3.74247 8.34492C2.98188 8.1851 2.30058 7.77713 1.81193 7.18891C1.3081 6.61346 1.03403 5.88129 1.03972 5.12593V5.06391C1.49798 5.33008 2.01769 5.48034 2.55122 5.50093C2.10075 5.18876 1.72727 4.78332 1.45775 4.31391C1.17311 3.82019 1.029 3.26174 1.04022 2.69599C1.05144 2.13025 1.2176 1.57763 1.5216 1.09492C2.36176 2.11487 3.41626 2.94901 4.61472 3.5417C5.81319 4.13438 7.12805 4.472 8.47151 4.53193C8.4288 4.28409 8.40744 4.03322 8.40767 3.78193C8.40529 3.20619 8.56059 2.64017 8.85762 2.14192C9.14737 1.64276 9.5698 1.22838 10.0808 0.941965C10.5388 0.684347 11.0531 0.535783 11.5816 0.508493C12.1101 0.481203 12.6377 0.575981 13.1213 0.784982C13.534 0.969187 13.9098 1.22313 14.2312 1.53498C14.99 1.39433 15.7189 1.13028 16.3872 0.753977C16.1385 1.51378 15.6117 2.15874 14.9066 2.56697C15.5723 2.47706 16.222 2.29804 16.8372 2.03498C16.371 2.69597 15.7948 3.27692 15.1321 3.75398C15.1578 3.88678 15.1685 4.02187 15.164 4.15693Z" fill="black"/>
</svg>
