<svg width="19" height="12" viewBox="0 0 19 12" fill="none" xmlns="http://www.w3.org/2000/svg">
<path d="M18.0998 1.875C18.2863 2.71806 18.3934 3.57594 18.4199 4.43799L18.4527 6L18.4199 7.56299C18.3945 8.43502 18.2873 9.30298 18.0998 10.156C17.9894 10.515 17.7874 10.8408 17.5128 11.1032C17.2382 11.3655 16.8998 11.5557 16.5293 11.656C15.2371 11.8696 13.9285 11.9743 12.6179 11.969L9.70047 12L6.78405 11.969C5.47344 11.9744 4.1648 11.8697 2.87262 11.656C2.50194 11.5561 2.16334 11.3661 1.88863 11.1038C1.61392 10.8414 1.4121 10.5152 1.30209 10.156C1.11364 9.30311 1.00617 8.4351 0.981025 7.56299L0.949219 6C0.949219 5.542 0.959825 5.02132 0.981025 4.43799C1.00721 3.57587 1.11467 2.71793 1.30209 1.875C1.4044 1.50856 1.60315 1.17454 1.87861 0.906006C2.15408 0.637469 2.49673 0.443725 2.87262 0.343994C4.1648 0.13035 5.47344 0.0256408 6.78405 0.0310059L9.70047 0L12.6179 0.0310059C13.9285 0.0256953 15.2371 0.130404 16.5293 0.343994C16.905 0.444178 17.2474 0.638027 17.5228 0.906494C17.7982 1.17496 17.9971 1.50879 18.0998 1.875ZM7.90529 8.56299L12.4887 6L7.90428 3.46899L7.90529 8.56299Z" fill="black"/>
</svg>
